<svg width="56" height="56" viewBox="0 0 56 56" fill="none" xmlns="http://www.w3.org/2000/svg">
<path d="M34.86 12.1101C35.7421 11.0934 36.4147 9.91248 36.8391 8.63513C37.2636 7.35779 37.4315 6.00918 37.3333 4.66675C34.6252 4.88535 32.1113 6.15905 30.3333 8.21341C29.4819 9.19802 28.8367 10.3435 28.4359 11.5819C28.0351 12.8204 27.8869 14.1266 28 15.4234C29.321 15.4344 30.6268 15.1413 31.8164 14.5668C33.006 13.9922 34.0474 13.1516 34.86 12.1101ZM40.74 29.4701C40.7556 27.6821 41.2266 25.9277 42.1084 24.3722C42.9902 22.8168 44.2539 21.5117 45.78 20.5801C44.8168 19.1923 43.5436 18.048 42.0612 17.238C40.5789 16.4279 38.9282 15.9744 37.24 15.9134C33.6 15.5401 30.24 18.0367 28.3033 18.0367C26.3667 18.0367 23.6367 15.9601 20.6033 16.0067C18.6203 16.0721 16.688 16.6502 14.995 17.6848C13.302 18.7195 11.9061 20.1752 10.9433 21.9101C6.83667 29.0501 9.89333 39.6667 14 45.4301C15.8667 48.2534 18.2 51.4501 21.28 51.3334C24.36 51.2167 25.3633 49.4201 28.9333 49.4201C32.5033 49.4201 33.6 51.3334 36.6333 51.2634C39.6667 51.1934 41.8133 48.3701 43.7733 45.5467C45.1618 43.497 46.2463 41.2571 46.9933 38.8967C45.1441 38.1081 43.5664 36.7951 42.4551 35.1198C41.3438 33.4445 40.7475 31.4804 40.74 29.4701Z" fill="#303437"/>
</svg>
