<svg width="20" height="12" viewBox="0 0 20 12" fill="none" xmlns="http://www.w3.org/2000/svg">
<path fill-rule="evenodd" clip-rule="evenodd" d="M4.2 5.82524V11.6505H5H5.8V9.1396V6.62872H10H14.2V9.1396V11.6505H15H15.8V5.82524V0H15H14.2V2.51088V5.02176H10H5.8V2.51088V0H5H4.2V5.82524ZM1.6 3.31436V5.02176H0.8H0V5.82524V6.62872H0.8H1.6V8.33612V10.0435H2.5H3.4V5.82524V1.60696H2.5H1.6V3.31436ZM16.6 5.82524V10.0435H17.5H18.4V8.33612V6.62872H19.2H20V5.82524V5.02176H19.2H18.4V3.31436V1.60696H17.5H16.6V5.82524Z" fill="white"/>
</svg>
