<svg width="56" height="56" viewBox="0 0 56 56" fill="none" xmlns="http://www.w3.org/2000/svg">
<path d="M9.76314 7.63843C9.27975 8.13248 9 8.90166 9 9.89779V45.4288C9 46.425 9.27975 47.1941 9.76314 47.6882L9.88244 47.7966L30.2753 27.8943V27.4243L9.88244 7.52196L9.76314 7.63843Z" fill="url(#paint0_linear_37_68)"/>
<path d="M37.0653 34.5317L30.2753 27.8943V27.4243L37.0736 20.7869L37.2258 20.8732L45.2768 25.3457C47.5744 26.615 47.5744 28.7036 45.2768 29.9809L37.2258 34.4454L37.0653 34.5317Z" fill="url(#paint1_linear_37_68)"/>
<path d="M37.2258 34.4452L30.2753 27.6591L9.7631 47.688C10.5262 48.4712 11.7707 48.5656 13.1859 47.7823L37.2258 34.4452Z" fill="url(#paint2_linear_37_68)"/>
<path d="M37.2258 20.8729L13.1859 7.53566C11.7707 6.76045 10.5262 6.85484 9.7631 7.63808L30.2753 27.6589L37.2258 20.8729Z" fill="url(#paint3_linear_37_68)"/>
<defs>
<linearGradient id="paint0_linear_37_68" x1="28.4646" y1="45.7988" x2="1.50895" y2="18.19" gradientUnits="userSpaceOnUse">
<stop stop-color="#00A0FF"/>
<stop offset="0.0066" stop-color="#00A1FF"/>
<stop offset="0.2601" stop-color="#00BEFF"/>
<stop offset="0.5122" stop-color="#00D2FF"/>
<stop offset="0.7604" stop-color="#00DFFF"/>
<stop offset="1" stop-color="#00E3FF"/>
</linearGradient>
<linearGradient id="paint1_linear_37_68" x1="48.2687" y1="27.657" x2="8.45077" y2="27.657" gradientUnits="userSpaceOnUse">
<stop stop-color="#FFE000"/>
<stop offset="0.4087" stop-color="#FFBD00"/>
<stop offset="0.7754" stop-color="#FFA500"/>
<stop offset="1" stop-color="#FF9C00"/>
</linearGradient>
<linearGradient id="paint2_linear_37_68" x1="33.4463" y1="23.97" x2="-3.10783" y2="-13.4698" gradientUnits="userSpaceOnUse">
<stop stop-color="#FF3A44"/>
<stop offset="1" stop-color="#C31162"/>
</linearGradient>
<linearGradient id="paint3_linear_37_68" x1="4.59976" y1="59.5088" x2="20.9228" y2="42.7904" gradientUnits="userSpaceOnUse">
<stop stop-color="#32A071"/>
<stop offset="0.0685" stop-color="#2DA771"/>
<stop offset="0.4762" stop-color="#15CF74"/>
<stop offset="0.8009" stop-color="#06E775"/>
<stop offset="1" stop-color="#00F076"/>
</linearGradient>
</defs>
</svg>
